<svg xmlns="http://www.w3.org/2000/svg" width="121.493" height="79.696" viewBox="0 0 121.493 79.696"><g id="cargo-transport" transform="translate(-71.9 638.516)"><path id="Path_52" fill="#0c1536" d="M178.965-638.5c-7.807.369-16.612,1.675-21.161,3.135a32.844,32.844,0,0,0-7.914,3.7,7.529,7.529,0,0,0-1.89,1.69c0,.046,19.178.108,42.613.108,23.42.015,42.536-.015,42.444-.046-.138-.062-8.037-1.69-15.6-3.212-10.634-2.151-20.792-4.026-25.971-4.795a40.894,40.894,0,0,0-7.53-.584C181.808-638.529,179.564-638.513,178.965-638.5Z" data-name="Path 52" transform="translate(-64.406)"/><path id="Path_53" fill="#0c1536" d="M129.066-565.736c-.353.138-.492.384-.968,1.875a20.4,20.4,0,0,1-4.748,8.206c-4.18,4.349-8.36,5.7-20.162,6.516-3.227.23-19.163.277-25.54.092l-4.18-.123-.246.476a14.137,14.137,0,0,0-.953,4.456l-.092,1.614.553.661c.845,1.014.953,1.475.953,4.41a26.3,26.3,0,0,1-.108,3.012c-.092.292-.323.492-.891.722l-.784.323.046,2.659c.046,2.659.046,2.674.553,3.688a4.686,4.686,0,0,0,2.628,2.459l.861.354,18.272.046c10.065.015,18.364.015,18.456-.031.138-.046.138-.307-.031-1.045a23.958,23.958,0,0,1-.292-2.889,15.1,15.1,0,0,1,3.473-10.957,14.367,14.367,0,0,1,3.642-3.242,9.729,9.729,0,0,1,3.919-1.614c2.72-.584,2.6-.569,18.256-1.629,4.349-.292,8.329-.569,8.836-.6.507-.046,4.81-.338,9.558-.645,4.748-.323,8.606-.615,8.575-.645s-2.628-.353-5.793-.738c-3.15-.369-8.083-.953-10.957-1.291s-7.914-.922-11.218-1.306c-3.289-.4-6.009-.738-6.039-.768-.092-.077.768-.169,7.192-.768,3.258-.292,9.958-.922,14.906-1.383s9.574-.891,10.3-.937c2.044-.169,2.028-.292-.108-.492-1.076-.108-7.53-.784-14.338-1.506s-13.6-1.429-15.091-1.583a21.43,21.43,0,0,1-2.843-.369c-.046-.061.015-.108.154-.108s2.443-.246,5.133-.538c9.512-1.03,25.2-2.7,26.969-2.874,1.721-.169,2.336-.43,1-.43-.353,0-2.966-.2-5.793-.461-8.452-.753-17.257-1.521-22.974-2-2.95-.261-6.055-.538-6.9-.615A7.949,7.949,0,0,0,129.066-565.736Z" data-name="Path 53" transform="translate(0 -61.467)"/><path id="Path_54" fill="#0c1536" d="M162.572-409.539a11.826,11.826,0,0,0-3.581,1.783q-4.91,3.481-4.887,11.74a10.587,10.587,0,0,0,.83,4.764,4.08,4.08,0,0,1,.307.692c0,.046-1.491.077-3.3.077h-3.3v.353a7.584,7.584,0,0,0,.922,2.92,5.575,5.575,0,0,1,.461.814c0,.031-2,.061-4.456.061-2.443,0-4.456-.046-4.456-.092s.415-.645.907-1.337c.937-1.275,1.245-1.89,1.245-2.428,0-.292-.246-.292-12.77-.292H117.7l.108.492a11.062,11.062,0,0,0,1.752,3.442,11.279,11.279,0,0,0,3.657,2.628l.907.43,49.713-.077,49.713-.077,1.06-.507a13.26,13.26,0,0,0,7.253-8.944,14.539,14.539,0,0,0,.292-3.842c-.015-3.227-.2-4.118-1.337-6.454a8.44,8.44,0,0,0-2.259-3.073,11.28,11.28,0,0,0-4.595-3.012l-1.337-.507H193.276L163.924-410Zm4.595,6.377a6.148,6.148,0,0,1,3.089,3.811,7.63,7.63,0,0,1,.415,3.027,7.788,7.788,0,0,1-.415,3.012,6.014,6.014,0,0,1-3.227,3.888,4.57,4.57,0,0,1-1.275.169c-2.7,0-4.856-3.089-4.856-6.992-.015-3.15,1.291-5.809,3.335-6.823A4.2,4.2,0,0,1,167.167-403.162Zm56.259.169c1.982.983,3.273,3.611,3.273,6.669,0,4.011-2.121,7.069-4.933,7.069-2.735,0-4.9-3.135-4.887-7.069C216.88-401.225,220.2-404.606,223.426-402.993Zm-19.04,11.833A6.65,6.65,0,0,0,206-387.41l.707.845-17.073.046c-9.389.015-17.1,0-17.15-.031a8.867,8.867,0,0,1,1.122-1.429c1.352-1.537,1.767-2.32,1.875-3.6l.092-.907h28.644Z" data-name="Path 54" transform="translate(-38.762 -193.399)"/><path id="Path_55" fill="#0c1536" d="M149.513-227.831a7.664,7.664,0,0,0-6.331,5.793,13.351,13.351,0,0,0,.061,4.564,8.153,8.153,0,0,0,4.011,5.025c1.675.891,2.044.937,7.945.983l5.332.031v-2.874l-5.409-.046c-5.271-.046-5.44-.061-6.178-.4a4.93,4.93,0,0,1-2.582-2.459,4.092,4.092,0,0,1-.507-2.489,4.24,4.24,0,0,1,.415-2.32,5.635,5.635,0,0,1,2.459-2.551l.814-.43,5.5-.046,5.486-.046V-228l-5.1.015C152.617-227.969,149.959-227.908,149.513-227.831Z" data-name="Path 55" transform="translate(-60.187 -347.431)"/><path id="Path_56" fill="#0c1536" d="M280.035-227.385a4.985,4.985,0,0,0-1.153,1.183C277.96-224.8,270-211.5,270-211.373a7.606,7.606,0,0,0,1.8.077l1.813-.061,3.673-6.055c2.028-3.335,3.7-6.055,3.719-6.055.046,0,2.828,4.61,2.828,4.687a14.774,14.774,0,0,1-2.182.108l-2.182.046-.814,1.306-.8,1.306,3.873.077,3.872.077,1.276,2.075c.707,1.137,1.337,2.167,1.4,2.29.108.169.569.231,1.936.261,1.537.031,1.783,0,1.706-.2-.092-.215-4.3-7.453-7.484-12.832-1.629-2.751-2.167-3.319-3.166-3.442A1.616,1.616,0,0,0,280.035-227.385Z" data-name="Path 56" transform="translate(-167.658 -347.662)"/><path id="Path_57" fill="#0c1536" d="M421-219.786v8.314l1.383-.031,1.383-.046v-13.615h5.317a54.213,54.213,0,0,1,5.962.169,2.664,2.664,0,0,1,2.013,1.875,2.931,2.931,0,0,1-1.567,3.657c-.722.353-.845.369-5.3.415L425.61-219v2.751h6.07l2.336,2.336,2.351,2.351,2.075.015c1.137.015,2.075.015,2.075,0,0-.031-1.076-1.106-2.382-2.413-1.306-1.291-2.382-2.4-2.382-2.443a4.785,4.785,0,0,1,1.06-.569,6.026,6.026,0,0,0,2.9-2.781,4.3,4.3,0,0,0,.415-2.413,4.473,4.473,0,0,0-.415-2.413,6.041,6.041,0,0,0-3.965-3.135c-.753-.246-1.6-.277-7.791-.338L421-228.1Z" data-name="Path 57" transform="translate(-295.453 -347.346)"/><path id="Path_58" fill="#0c1536" d="M570.895-227.831a7.744,7.744,0,0,0-6.639,8.56,8.08,8.08,0,0,0,5.7,7.438c1.03.323,1.352.338,7.053.353H583v-4.533l.015-4.533-5.332-.031-5.348-.015v2.582h7.837v3.7l-4.564-.046-4.579-.046-.861-.4a5.28,5.28,0,0,1-2.551-2.413,4.27,4.27,0,0,1-.43-2.489,4.2,4.2,0,0,1,.384-2.382,6.111,6.111,0,0,1,2.536-2.536c.768-.384.784-.384,6.27-.43l5.486-.046V-228l-5.1.015C573.953-227.969,571.31-227.908,570.895-227.831Z" data-name="Path 58" transform="translate(-416.673 -347.431)"/><path id="Path_59" fill="#0c1536" d="M708.8-227.735a7.876,7.876,0,0,0-6.685,5.824,13.48,13.48,0,0,0,.077,4.579,8.3,8.3,0,0,0,4.134,5.148c1.568.768,2.889.937,6.808.876,2.874-.046,3.488-.108,4.364-.384a8.155,8.155,0,0,0,5.378-5.855,10.231,10.231,0,0,0-.645-6.162,8.723,8.723,0,0,0-2.274-2.582c-1.737-1.26-3.181-1.552-7.545-1.521C710.677-227.812,709.064-227.766,708.8-227.735Zm8.544,3.319a5.673,5.673,0,0,1,2.49,2.536,7.009,7.009,0,0,1,.123,4.349,5.1,5.1,0,0,1-2.6,2.781l-1.03.507h-7.684l-1.03-.507a5.13,5.13,0,0,1-2.459-2.474,4.565,4.565,0,0,1-.353-2.244,4.313,4.313,0,0,1,.4-2.382,4.66,4.66,0,0,1,1.936-2.259c1.352-.784,1.552-.814,5.578-.768l3.765.031Z" data-name="Path 59" transform="translate(-533.236 -347.588)"/></g></svg>